<svg width="155" height="40" viewBox="0 0 155 40" fill="none" xmlns="http://www.w3.org/2000/svg">
<path d="M51.2446 31.7476L59.5535 8.32227L67.8461 31.7476H65.5462L63.3241 25.4601H55.7666L53.5289 31.7476H51.2446ZM62.5573 23.3032L59.5535 14.7802L56.5334 23.3032H62.5573Z" fill="#005CB3"/>
<path d="M85.8424 11.024H77.3307V19.2356H85.6544V21.3932H77.3307V29.6048H85.8424V31.7476H75.1553V8.88184H85.8424V11.024Z" fill="#005CB3"/>
<path d="M96.3605 8.85083V29.6054H106.359V31.7475H94.1851V8.85083H96.3605Z" fill="#005CB3"/>
<path d="M116.861 8.88184H114.686V31.7476H116.861V8.88184Z" fill="#005CB3"/>
<path d="M140.615 8.88184L134.044 20.1521L140.804 31.747H138.3L132.792 22.2942L127.3 31.747H124.797L131.556 20.1521L124.984 8.88184H127.487L132.792 18.0092L138.112 8.88184H140.615Z" fill="#005CB3"/>
<path d="M146.874 14.1255L154.123 8.323V31.7477H150.646V15.1177L146.874 18.1414V14.1255Z" fill="#005CB3"/>
<path d="M25.7805 26.5328C25.7805 33.3637 20.1989 38.9005 13.3135 38.9005C6.42882 38.9005 0.8479 33.3637 0.8479 26.5328C0.8479 19.7018 6.42882 14.1643 13.3135 14.1643C20.1989 14.1643 25.7805 19.7018 25.7805 26.5328Z" fill="#F39911"/>
<path d="M41.8409 17.139C41.8409 24.2531 36.0274 30.0207 28.8567 30.0207C21.6852 30.0207 15.873 24.2531 15.873 17.139C15.873 10.0249 21.6852 4.25732 28.8567 4.25732C36.0274 4.25732 41.8409 10.0249 41.8409 17.139Z" fill="#005CB3"/>
<path d="M21.7576 8.91807C21.7576 12.143 19.123 14.7568 15.873 14.7568C12.6224 14.7568 9.98779 12.143 9.98779 8.91807C9.98779 5.69379 12.6224 3.07935 15.873 3.07935C19.123 3.07935 21.7576 5.69379 21.7576 8.91807Z" fill="#21BAFE"/>
<path d="M23.0194 2.13078C23.0194 2.82179 22.4547 3.38265 21.7575 3.38265C21.061 3.38265 20.4963 2.82179 20.4963 2.13078C20.4963 1.43977 21.061 0.878906 21.7575 0.878906C22.4547 0.878906 23.0194 1.43977 23.0194 2.13078Z" fill="#F39911"/>
<path d="M36.1194 33.8421C36.1194 35.1765 35.0293 36.2579 33.6836 36.2579C32.3386 36.2579 31.2485 35.1771 31.2485 33.8421C31.2485 32.507 32.3386 31.4255 33.6836 31.4255C35.0293 31.4262 36.1194 32.5077 36.1194 33.8421Z" fill="#005CB3"/>
<path d="M29.1805 30.0201C29.1805 33.1994 26.5824 35.777 23.3784 35.777C20.1738 35.777 17.5757 33.1994 17.5757 30.0201C17.5757 26.8415 20.1738 24.2639 23.3784 24.2639C26.5831 24.2639 29.1805 26.8415 29.1805 30.0201Z" fill="#21BAFE"/>
<path d="M7.35596 38.818L20.3064 3.35962L32.5678 39.0494L29.0744 39.0172L25.79 29.4383L14.313 29.333L10.8257 38.8495L7.35596 38.818ZM24.6559 26.1516L20.2151 13.1673L15.5079 26.0678L24.6559 26.1516Z" fill="white"/>
</svg>
