<svg width="24" height="24" viewBox="0 0 24 24" fill="none" xmlns="http://www.w3.org/2000/svg">
<path d="M12 23C18.0751 23 23 18.0751 23 12C23 5.92487 18.0751 1 12 1C5.92487 1 1 5.92487 1 12C1 18.0751 5.92487 23 12 23Z" stroke="#005CB3" stroke-width="2" stroke-linecap="round" stroke-linejoin="round"/>
<path d="M19.92 19.42L12 12V1" stroke="#005CB3" stroke-width="2" stroke-linecap="round" stroke-linejoin="round"/>
<path d="M12 11.38H22.94C23.56 14.32 21.69 17.82 19.94 19.38L12 11.38Z" fill="#005CB3"/>
<path d="M16.3501 12.3L22.1201 6.53003" stroke="#005CB3" stroke-miterlimit="10"/>
<path d="M19.1602 12.49L22.5302 9.10999" stroke="#005CB3" stroke-miterlimit="10"/>
<path d="M13.7402 11.99L20.6802 5.05005" stroke="#005CB3" stroke-miterlimit="10"/>
<path d="M12.0601 10.81L19.2501 3.60999" stroke="#005CB3" stroke-miterlimit="10"/>
<path d="M12.0498 7.96994L17.8198 2.18994" stroke="#005CB3" stroke-miterlimit="10"/>
<path d="M11.9302 5.17998L15.5202 1.59998" stroke="#005CB3" stroke-miterlimit="10"/>
</svg>
