<svg width="22" height="22" viewBox="0 0 22 22" fill="none" xmlns="http://www.w3.org/2000/svg">
<path d="M11.0507 21.4335C5.26168 21.4335 0.552734 16.7241 0.552734 10.9355C0.552734 5.14695 5.26168 0.4375 11.0507 0.4375C16.8398 0.4375 21.5488 5.14695 21.5488 10.9355C21.5488 16.7241 16.8398 21.4335 11.0507 21.4335ZM11.0507 1.96094C6.10211 1.96094 2.07617 5.98688 2.07617 10.9355C2.07617 15.8841 6.10211 19.9101 11.0507 19.9101C15.9994 19.9101 20.0253 15.8841 20.0253 10.9355C20.0253 5.98688 15.9994 1.96094 11.0507 1.96094Z" fill="#363636"/>
<path d="M15.4136 16.1797C15.3136 16.1798 15.2145 16.1601 15.122 16.1218C15.0296 16.0836 14.9456 16.0275 14.8748 15.9568L6.14856 7.23002C6.07581 7.15976 6.01778 7.07571 5.97786 6.98277C5.93794 6.88984 5.91692 6.78989 5.91604 6.68875C5.91517 6.58761 5.93444 6.48731 5.97274 6.39369C6.01104 6.30008 6.0676 6.21503 6.13912 6.14351C6.21064 6.07199 6.29568 6.01543 6.3893 5.97713C6.48291 5.93883 6.58321 5.91956 6.68435 5.92044C6.78549 5.92132 6.88545 5.94233 6.97838 5.98225C7.07131 6.02217 7.15536 6.0802 7.22563 6.15295L15.9524 14.8797C16.0588 14.9863 16.1313 15.122 16.1606 15.2697C16.1899 15.4174 16.1748 15.5705 16.1171 15.7096C16.0595 15.8488 15.9618 15.9677 15.8366 16.0513C15.7114 16.135 15.5642 16.1797 15.4136 16.1797Z" fill="#363636"/>
<path d="M6.68683 16.1797C6.53627 16.1796 6.38913 16.1348 6.26399 16.0511C6.13885 15.9674 6.04132 15.8485 5.98373 15.7094C5.92613 15.5703 5.91105 15.4172 5.94038 15.2696C5.96972 15.1219 6.04216 14.9862 6.14855 14.8797L14.8748 6.15294C15.0176 6.01004 15.2114 5.92974 15.4134 5.92969C15.6154 5.92964 15.8092 6.00985 15.9521 6.15268C16.095 6.29551 16.1753 6.48925 16.1754 6.69129C16.1754 6.89333 16.0952 7.08711 15.9524 7.23001L7.22562 15.9568C7.15485 16.0275 7.07085 16.0836 6.9784 16.1218C6.88595 16.1601 6.78688 16.1797 6.68683 16.1797Z" fill="#363636"/>
</svg>
